<svg id="Iconly_Bold_Message" data-name="Iconly/Bold/Message" xmlns="http://www.w3.org/2000/svg" width="24" height="22" viewBox="0 0 24 22">
  <g id="Message">
    <path id="Message-2" data-name="Message" d="M17.927,22H6.072A6.13,6.13,0,0,1,0,15.828V6.172A6.13,6.13,0,0,1,6.072,0H17.927a6.054,6.054,0,0,1,4.3,1.811A6.183,6.183,0,0,1,24,6.172v9.656A6.13,6.13,0,0,1,17.927,22ZM4.841,6.411a.872.872,0,0,0-.641.275.947.947,0,0,0-.085,1.222l.158.158,5.459,4.34a3.712,3.712,0,0,0,2.34.831,3.772,3.772,0,0,0,2.35-.831l5.414-4.412.1-.1a.959.959,0,0,0-.014-1.222.991.991,0,0,0-.634-.318h-.051a.9.9,0,0,0-.623.246L13.2,11a1.857,1.857,0,0,1-1.2.441A1.889,1.889,0,0,1,10.8,11L5.4,6.6A.922.922,0,0,0,4.841,6.411Z" fill="#fff"/>
  </g>
</svg>
