<svg id="Iconly_Bold_Location" data-name="Iconly/Bold/Location" xmlns="http://www.w3.org/2000/svg" width="19" height="25" viewBox="0 0 19 25">
  <g id="Location">
    <path id="Location-2" data-name="Location" d="M9.5,25a1.413,1.413,0,0,1-.82-.309,25.346,25.346,0,0,1-6.192-6.426A13.978,13.978,0,0,1,0,10.4,10.832,10.832,0,0,1,2.8,3.042,9.037,9.037,0,0,1,9.492,0C14.735,0,19,4.664,19,10.4a13.986,13.986,0,0,1-2.493,7.867,25.824,25.824,0,0,1-6.193,6.426A1.374,1.374,0,0,1,9.5,25ZM9.492,7.221a3.334,3.334,0,0,0-3.128,3.5,3.6,3.6,0,0,0,.918,2.443,2.976,2.976,0,0,0,2.21,1,3.306,3.306,0,0,0,3.143-3.441,3.681,3.681,0,0,0-.925-2.467A2.968,2.968,0,0,0,9.492,7.221Z" fill="#fff"/>
  </g>
</svg>
